<svg width="700" height="700" xmlns="http://www.w3.org/2000/svg" preserveAspectRatio="xMidYMid meet" version="1.0">

 
<g transform="matrix(1, 0, 0, 1, 95.867134, 60.627064)">

<path style="stroke: rgb(0, 0, 0); fill: url(#gradient-3);" d="M 371.582 238.19 L 455.912 239.806 C 455.912 239.806 455.912 248.53 455.912 248.206 C 455.912 247.882 343.473 247.56 343.473 247.56 L 452.681 163.554 L 452.681 147.399 L 461.543 147.445 L 461.405 168.723 L 371.582 238.19 Z"></path>
<path style="stroke: rgb(0, 0, 0); fill: url(#gradient-2);" d="M 326.025 255.053 L 409.708 254.083 L 409.385 265.069 C 409.385 265.069 298.561 264.746 299.208 264.746 C 299.855 264.746 394.846 186.232 394.846 186.232 L 409.062 186.232 C 409.062 186.232 326.348 256.022 326.025 255.053 Z"></path>
<path style="stroke: rgb(0, 0, 0); fill: url(#gradient-0); fill-rule: nonzero; paint-order: fill;" d="M 344.965 126.136 L 345.611 135.183 L 430.587 136.475 C 430.587 136.475 347.873 202.711 348.196 203.034 C 348.519 203.357 364.674 202.388 364.674 202.388 L 457.405 126.459 L 344.965 126.136 Z"></path>
<path style="stroke: rgb(0, 0, 0); fill: url(#gradient-1);" d="M 379.444 153.599 L 288.007 225.004 L 287.222 246.329 L 297.7 246.006 L 298.023 228.558 L 408.201 143.906 L 293.5 143.583 L 293.5 153.922 L 379.444 153.599 Z"></path>

 </g>
</svg>