<?xml version="1.0" standalone="no"?>
<!DOCTYPE svg PUBLIC "-//W3C//DTD SVG 20010904//EN"
 "http://www.w3.org/TR/2001/REC-SVG-20010904/DTD/svg10.dtd">
<svg version="1.0" xmlns="http://www.w3.org/2000/svg"
 width="256.000000pt" height="176.000000pt" viewBox="0 0 256.000000 176.000000"
 preserveAspectRatio="xMidYMid meet">

<g transform="translate(0.000000,176.000000) scale(0.100000,-0.100000)"
fill="#000000" stroke="none">
<path d="M1577 1562 l-538 -2 3 -48 3 -47 415 -5 415 -5 -125 -100 c-68 -55
-137 -109 -151 -120 -74 -55 -469 -377 -469 -381 0 -3 26 15 58 40 31 26 204
162 384 304 180 141 327 262 327 267 1 7 -144 9 -419 7 l-420 -2 1 32 1 33 8
-30 c4 -16 8 -24 9 -17 1 9 107 12 497 12 272 0 493 4 490 8 -3 5 2 9 11 9 12
0 9 -7 -11 -24 -15 -13 -32 -20 -38 -17 -6 4 -8 2 -5 -3 4 -6 -138 -127 -315
-269 -296 -238 -470 -383 -320 -267 34 26 80 62 101 78 21 17 81 64 132 106
105 85 303 241 394 311 33 26 80 64 105 86 43 37 43 39 20 43 -14 2 -267 3
-563 1z m221 -19 c-130 -2 -346 -2 -480 0 -134 1 -27 2 237 2 264 0 373 -1
243 -2z m322 -8 c-14 -17 -25 -20 -15 -6 3 6 -12 12 -32 14 -34 3 -33 4 11 5
42 2 47 0 36 -13z"/>
<path d="M537 1398 c-2 -7 -4 -29 -3 -48 l1 -35 420 -3 c230 -1 423 -6 428
-11 7 -7 -100 -95 -368 -301 -132 -102 -398 -315 -429 -343 -40 -38 48 30 447
342 181 141 335 255 343 255 8 -1 12 2 9 6 -3 5 5 17 18 27 12 10 30 29 40 43
9 13 17 19 17 12 0 -7 14 -12 38 -11 l37 2 -35 7 -35 7 42 2 c24 0 42 -2 40
-7 -1 -4 3 -7 8 -7 6 0 9 2 8 5 -1 3 8 6 19 6 18 0 18 -2 -7 -23 -14 -13 -31
-21 -36 -17 -5 3 -8 1 -7 -5 2 -5 -208 -177 -467 -381 -259 -204 -472 -374
-475 -377 -14 -17 38 21 153 112 70 55 145 113 165 128 20 16 46 36 57 45 11
9 38 30 60 46 22 17 42 33 45 36 3 4 142 113 310 244 168 130 307 242 308 247
2 5 -219 9 -571 9 -451 0 -576 -3 -580 -12z m463 -66 c241 2 436 0 433 -4 -2
-5 -202 -8 -444 -8 l-439 0 2 43 1 42 4 -38 4 -38 439 3z m639 42 c-6 -8 -17
-14 -23 -14 -6 0 -3 5 7 11 9 6 14 15 11 21 -4 7 -2 8 5 4 9 -6 9 -11 0 -22z
m-472 -31 c-109 -2 -285 -2 -390 0 -106 1 -16 2 198 2 215 0 301 -1 192 -2z"/>
<path d="M2109 1308 c-5 -9 -9 -44 -9 -77 0 -69 24 -44 -245 -256 -88 -69
-185 -145 -215 -170 -30 -24 -123 -97 -206 -162 -155 -121 -416 -324 -423
-330 -2 -2 -1 -6 2 -9 4 -4 14 2 24 13 10 11 70 60 133 110 63 49 302 235 530
413 l415 323 6 66 c4 50 6 56 8 26 2 -28 5 -35 10 -22 4 10 10 18 14 18 21 -2
26 1 29 17 2 9 8 -16 12 -55 4 -40 5 -77 1 -82 -3 -6 -206 -168 -450 -361
-245 -193 -445 -353 -445 -357 0 -3 19 10 43 29 71 58 587 461 636 497 25 19
48 37 51 40 3 4 45 38 93 76 l88 69 -3 100 -3 101 -43 0 c-31 1 -46 -4 -53
-17z"/>
<path d="M1466 1301 c-4 -5 3 -7 14 -4 23 6 26 13 6 13 -8 0 -17 -4 -20 -9z"/>
<path d="M1384 834 c-141 -112 -174 -139 -248 -199 -34 -28 -161 -131 -283
-229 -123 -98 -223 -181 -223 -183 0 -3 19 10 43 29 23 19 175 140 337 268
162 128 308 243 323 256 16 13 34 21 39 18 7 -4 8 -2 4 4 -8 13 28 35 39 24 3
-4 6 -2 5 3 -5 22 1 27 18 14 15 -13 16 -12 3 4 -13 16 -11 17 23 13 20 -3 35
-2 32 2 -3 4 3 8 13 9 21 2 22 -27 2 -51 -15 -18 -36 -22 -25 -4 4 7 3 8 -5 4
-6 -4 -9 -11 -6 -16 5 -8 -44 -48 -417 -348 -98 -79 -178 -145 -178 -148 0 -3
19 9 42 28 23 18 90 71 149 118 447 353 569 452 569 460 0 6 -33 10 -73 10
l-74 0 -109 -86z m186 31 c-13 -14 -28 -25 -34 -25 -6 0 3 11 19 25 39 31 45
32 15 0z"/>
<path d="M1270 849 l-45 -41 48 37 c41 33 53 45 45 45 -2 0 -23 -18 -48 -41z"/>
<path d="M1088 827 c-16 -13 -28 -26 -28 -30 0 -9 148 -9 153 1 3 4 -29 5 -70
4 l-76 -4 29 26 c36 31 29 34 -8 3z"/>
<path d="M517 607 c-28 -22 -28 -23 -25 -122 l3 -100 39 -3 c21 -2 42 0 47 5
4 4 -12 6 -36 5 l-45 -4 0 96 c0 93 1 98 28 121 34 31 26 32 -11 2z"/>
<path d="M1280 398 c0 -5 195 -8 434 -8 l435 0 4 -37 4 -38 1 42 2 43 -440 2
c-242 2 -440 0 -440 -4z"/>
<path d="M1368 303 c138 -2 366 -2 505 0 138 1 25 2 -253 2 -278 0 -391 -1
-252 -2z"/>
<path d="M830 270 l-34 -30 424 2 425 3 -409 2 -409 3 23 25 c31 33 23 31 -20
-5z"/>
<path d="M594 198 l-19 -23 23 19 c21 18 27 26 19 26 -2 0 -12 -10 -23 -22z"/>
<path d="M551 167 c-6 -8 -8 -17 -4 -20 9 -10 1091 -9 1096 1 3 4 -243 6 -545
4 -491 -2 -549 -1 -538 13 7 8 10 15 7 15 -2 0 -10 -6 -16 -13z"/>
</g>
</svg>
